{
  "accessors": [
    {
      "bufferView": 1,
      "componentType": 5126,
      "count": 2820,
      "max": [
        1.5099500417709351,
        1.509980320930481,
        0.48000001907348633
      ],
      "min": [
        -1.5099999904632568,
        -1.5098675489425659,
        -0.48000001907348633
      ],
      "type": "VEC3"
    },
    {
      "bufferView": 1,
      "byteOffset": 33840,
      "componentType": 5126,
      "count": 2820,
      "max": [
        0.99980539083480835,
        0.99991410970687866,
        1
      ],
      "min": [
        -0.9996529221534729,
        -0.99980545043945312,
        -1
      ],
      "type": "VEC3"
    },
    {
      "bufferView": 0,
      "componentType": 5125,
      "count": 4752,
      "max": [
        2819
      ],
      "min": [
        0
      ],
      "type": "SCALAR"
    },
    {
      "bufferView": 1,
      "byteOffset": 67680,
      "componentType": 5126,
      "count": 2800,
      "max": [
        1.5072058439254761,
        1.5098675489425659,
        0.48000001907348633
      ],
      "min": [
        -1.5099999904632568,
        -1.5098675489425659,
        -0.48000001907348633
      ],
      "type": "VEC3"
    },
    {
      "bufferView": 1,
      "byteOffset": 101280,
      "componentType": 5126,
      "count": 2800,
      "max": [
        1,
        0.9997895359992981,
        1
      ],
      "min": [
        -0.99985259771347046,
        -0.9997895359992981,
        -1
      ],
      "type": "VEC3"
    },
    {
      "bufferView": 0,
      "byteOffset": 19008,
      "componentType": 5125,
      "count": 4752,
      "max": [
        2799
      ],
      "min": [
        0
      ],
      "type": "SCALAR"
    },
    {
      "bufferView": 1,
      "byteOffset": 134880,
      "componentType": 5126,
      "count": 2862,
      "max": [
        1.5072058439254761,
        1.5098675489425659,
        0.48000001907348633
      ],
      "min": [
        -1.5099999904632568,
        -1.5098675489425659,
        -0.48000001907348633
      ],
      "type": "VEC3"
    },
    {
      "bufferView": 1,
      "byteOffset": 169224,
      "componentType": 5126,
      "count": 2862,
      "max": [
        1,
        0.99886739253997803,
        1
      ],
      "min": [
        -0.9954720139503479,
        -0.99886739253997803,
        -1
      ],
      "type": "VEC3"
    },
    {
      "bufferView": 0,
      "byteOffset": 38016,
      "componentType": 5125,
      "count": 4752,
      "max": [
        2861
      ],
      "min": [
        0
      ],
      "type": "SCALAR"
    },
    {
      "bufferView": 1,
      "byteOffset": 203568,
      "componentType": 5126,
      "count": 1048,
      "max": [
        1.9459933042526245,
        1.9459933042526245,
        0.25000002980232239
      ],
      "min": [
        -1.9459933042526245,
        -1.9459933042526245,
        -0.25000002980232239
      ],
      "type": "VEC3"
    },
    {
      "bufferView": 1,
      "byteOffset": 216144,
      "componentType": 5126,
      "count": 1048,
      "max": [
        0.99785894155502319,
        0.99785894155502319,
        1
      ],
      "min": [
        -0.99785894155502319,
        -0.99785894155502319,
        -1
      ],
      "type": "VEC3"
    },
    {
      "bufferView": 0,
      "byteOffset": 57024,
      "componentType": 5125,
      "count": 1728,
      "max": [
        1047
      ],
      "min": [
        0
      ],
      "type": "SCALAR"
    },
    {
      "bufferView": 1,
      "byteOffset": 228720,
      "componentType": 5126,
      "count": 15552,
      "max": [
        0.81999903917312622,
        0.81999903917312622,
        4.5900001525878906
      ],
      "min": [
        -0.81999903917312622,
        -0.81999903917312622,
        0
      ],
      "type": "VEC3"
    },
    {
      "bufferView": 1,
      "byteOffset": 415344,
      "componentType": 5126,
      "count": 15552,
      "max": [
        0.99999946355819702,
        0.9999995231628418,
        0.7360808253288269
      ],
      "min": [
        -0.99999946355819702,
        -0.9999995231628418,
        -0.73608064651489258
      ],
      "type": "VEC3"
    },
    {
      "bufferView": 0,
      "byteOffset": 63936,
      "componentType": 5125,
      "count": 23328,
      "max": [
        15551
      ],
      "min": [
        0
      ],
      "type": "SCALAR"
    }
  ],
  "asset": {
    "extras": {
      "author": "Helindu (https://sketchfab.com/Helindu)",
      "license": "CC-BY-4.0 (http://creativecommons.org/licenses/by/4.0/)",
      "source": "https://sketchfab.com/3d-models/gears-2feaed09a22f422d8d080d42aa58f0b6",
      "title": "Gears"
    },
    "generator": "Sketchfab-7.68.0",
    "version": "2.0"
  },
  "bufferViews": [
    {
      "buffer": 0,
      "byteLength": 157248,
      "byteOffset": 0,
      "name": "floatBufferViews",
      "target": 34963
    },
    {
      "buffer": 0,
      "byteLength": 601968,
      "byteOffset": 157248,
      "byteStride": 12,
      "name": "floatBufferViews",
      "target": 34962
    }
  ],
  "buffers": [
    {
      "byteLength": 759216,
      "uri": "scene.bin"
    }
  ],
  "materials": [
    {
      "doubleSided": true,
      "name": "Scene_-_Root",
      "pbrMetallicRoughness": {
        "baseColorFactor": [
          0.12976371951219512,
          0.12976371951219512,
          0.12976371951219512,
          1
        ],
        "metallicFactor": 0,
        "roughnessFactor": 0.59999999999999998
      }
    }
  ],
  "meshes": [
    {
      "name": "Gear__0",
      "primitives": [
        {
          "attributes": {
            "NORMAL": 1,
            "POSITION": 0
          },
          "indices": 2,
          "material": 0,
          "mode": 4
        }
      ]
    },
    {
      "name": "Gear.001__0",
      "primitives": [
        {
          "attributes": {
            "NORMAL": 4,
            "POSITION": 3
          },
          "indices": 5,
          "material": 0,
          "mode": 4
        }
      ]
    },
    {
      "name": "Gear.002__0",
      "primitives": [
        {
          "attributes": {
            "NORMAL": 7,
            "POSITION": 6
          },
          "indices": 8,
          "material": 0,
          "mode": 4
        }
      ]
    },
    {
      "name": "Gear.003__0",
      "primitives": [
        {
          "attributes": {
            "NORMAL": 10,
            "POSITION": 9
          },
          "indices": 11,
          "material": 0,
          "mode": 4
        }
      ]
    },
    {
      "name": "Worm Gear__0",
      "primitives": [
        {
          "attributes": {
            "NORMAL": 13,
            "POSITION": 12
          },
          "indices": 14,
          "material": 0,
          "mode": 4
        }
      ]
    }
  ],
  "nodes": [
    {
      "children": [
        1
      ],
      "name": "RootNode (gltf orientation matrix)",
      "rotation": [
        -0.70710678118654746,
        -0,
        -0,
        0.70710678118654757
      ]
    },
    {
      "children": [
        2
      ],
      "name": "RootNode (model correction matrix)"
    },
    {
      "children": [
        3
      ],
      "matrix": [
        1,
        0,
        0,
        0,
        0,
        0,
        1,
        0,
        0,
        -1,
        0,
        0,
        0,
        0,
        0,
        1
      ],
      "name": "3cb4eb4c244448909688049593c3c630.fbx"
    },
    {
      "children": [
        4,
        6,
        8,
        10,
        12
      ],
      "name": "RootNode"
    },
    {
      "children": [
        5
      ],
      "matrix": [
        100,
        0,
        0,
        0,
        0,
        -1.6292067939183141e-05,
        -99.999999999998678,
        0,
        0,
        99.999999999998678,
        -1.6292067939183141e-05,
        0,
        328.6553955078125,
        0,
        10.078620910644531,
        1
      ],
      "name": "Gear"
    },
    {
      "mesh": 0,
      "name": "Gear__0"
    },
    {
      "children": [
        7
      ],
      "matrix": [
        100,
        0,
        0,
        0,
        0,
        -1.6292067939183141e-05,
        -99.999999999998678,
        0,
        0,
        99.999999999998678,
        -1.6292067939183141e-05,
        0,
        2.1765255928039551,
        0,
        -297.73321533203125,
        1
      ],
      "name": "Gear.001"
    },
    {
      "mesh": 1,
      "name": "Gear.001__0"
    },
    {
      "children": [
        9
      ],
      "matrix": [
        100,
        0,
        0,
        0,
        -0,
        -1.6292067939183141e-05,
        -99.999999999998678,
        0,
        0,
        99.999999999998678,
        -1.6292067939183141e-05,
        0,
        -296.00747680664062,
        0,
        3.5943031311035156,
        1
      ],
      "name": "Gear.002"
    },
    {
      "mesh": 2,
      "name": "Gear.002__0"
    },
    {
      "children": [
        11
      ],
      "matrix": [
        100,
        0,
        0,
        0,
        0,
        -1.6292067939183141e-05,
        -99.999999999998678,
        0,
        0,
        99.999999999998678,
        -1.6292067939183141e-05,
        0,
        0,
        0,
        375.00485229492188,
        1
      ],
      "name": "Gear.003"
    },
    {
      "mesh": 3,
      "name": "Gear.003__0"
    },
    {
      "children": [
        13
      ],
      "matrix": [
        100,
        0,
        0,
        0,
        0,
        -1.6292067939183141e-05,
        -99.999999999998678,
        0,
        0,
        99.999999999998678,
        -1.6292067939183141e-05,
        0,
        0,
        0,
        -0.68316459655761719,
        1
      ],
      "name": "Worm Gear"
    },
    {
      "mesh": 4,
      "name": "Worm Gear__0"
    }
  ],
  "scene": 0,
  "scenes": [
    {
      "name": "OSG_Scene",
      "nodes": [
        0
      ]
    }
  ]
}

